<mxfile host="app.diagrams.net" modified="2024-04-19T17:08:47.356Z" agent="Mozilla/5.0 (Windows NT 10.0; Win64; x64; rv:124.0) Gecko/20100101 Firefox/124.0" version="24.2.7" etag="Xyn_4opLOPOIcSLQLK5p" type="github">
  <diagram name="Page-1" id="OqXhd6lRRRtc-QcUAtUc">
    <mxGraphModel>
      <root>
        <mxCell id="0" />
        <mxCell id="1" parent="0" />
      </root>
    </mxGraphModel>
  </diagram>
</mxfile>
